<svg width="28" height="24" viewBox="0 0 28 24" fill="none" xmlns="http://www.w3.org/2000/svg">
<path fill-rule="evenodd" clip-rule="evenodd" d="M13.5891 3.53603C14.435 1.89628 16.1477 0.773438 18.1151 0.773438H27.1733V20.0312H18.1139C14.2393 20.0312 14.1563 23.7959 14.1518 23.9966L14.1518 23.9995H13.4754H13.0203C13.0203 23.8362 12.9547 20.0312 9.09528 20.0312H0.0395716L0 19.4673V0.773438H9.05941C11.0269 0.773438 12.7396 1.89628 13.5891 3.53603ZM6.12962 10.4846C5.5175 10.0419 4.99689 9.53616 4.56531 8.96484L3.51172 9.73525C3.85673 10.4339 4.34149 11.1376 4.96721 11.8437C5.5917 12.5498 6.33614 13.1854 7.19929 13.7493C8.06245 14.3132 9.03319 14.7695 10.1115 15.1195C11.1898 15.4694 12.3547 15.6438 13.6062 15.6438C14.8576 15.6438 16.0225 15.4694 17.1008 15.1195C18.1792 14.7695 19.1499 14.3132 20.0131 13.7493C20.875 13.1854 21.6194 12.5498 22.2451 11.8437C22.8696 11.1376 23.3556 10.4352 23.7006 9.73525L22.6433 8.96484C22.2118 9.53492 21.6899 10.0419 21.079 10.4846C20.4669 10.9273 19.8016 11.2909 19.0831 11.5766C18.3647 11.8622 17.6054 12.0799 16.8078 12.2295C16.0101 12.3791 15.2076 12.4546 14.4026 12.4546H12.8061C12.0011 12.4546 11.1985 12.3791 10.4009 12.2295C9.60326 12.0799 8.84399 11.8622 8.12551 11.5766C7.40581 11.2909 6.74051 10.9273 6.12962 10.4846Z" fill="white"/>
</svg>
